<svg xmlns="http://www.w3.org/2000/svg" width="32" height="32" viewBox="0 0 32 32" fill="none">
  <circle cx="16" cy="16" r="14" fill="#FF6B35"/>
  <path d="M16 8C13.8 8 12 9.8 12 12V20C12 22.2 13.8 24 16 24C18.2 24 20 22.2 20 20V12C20 9.8 18.2 8 16 8Z" fill="white"/>
  <path d="M22 18V16C22 15.4 21.6 15 21 15C20.4 15 20 15.4 20 16V18C20 21.3 17.3 24 14 24C10.7 24 8 21.3 8 18V16C8 15.4 7.6 15 7 15C6.4 15 6 15.4 6 16V18C6 22.1 9 25.5 13 26.2V28H11C10.4 28 10 28.4 10 29C10 29.6 10.4 30 11 30H17C17.6 30 18 29.6 18 29C18 28.4 17.6 28 17 28H15V26.2C19 25.5 22 22.1 22 18Z" fill="white"/>
</svg>
